<?xml version="1.0" encoding="UTF-8"?>
<!-- Generator: visioncortex VTracer 0.6.4 -->
<svg version="1.1" xmlns="http://www.w3.org/2000/svg" width="500" height="480">
<path d="M0 0 C1.51 -0 1.51 -0 3.05 -0.01 C4.7 0 4.7 0 6.38 0.01 C7.54 0.01 8.7 0.01 9.9 0.01 C13.74 0.01 17.58 0.03 21.42 0.05 C24.09 0.05 26.75 0.05 29.41 0.05 C35.7 0.06 42 0.08 48.29 0.1 C55.46 0.12 62.62 0.13 69.79 0.14 C84.52 0.16 99.26 0.2 114 0.24 C117.33 6.81 120.61 13.36 123.49 20.14 C123.94 21.18 123.94 21.18 124.4 22.25 C125.04 23.74 125.68 25.23 126.32 26.73 C127.7 29.97 129.1 33.21 130.49 36.45 C131.23 38.15 131.96 39.85 132.69 41.55 C136.58 50.59 140.5 59.6 144.44 68.62 C145.15 70.25 145.86 71.88 146.57 73.51 C148 76.78 149.43 80.06 150.86 83.33 C154.06 90.66 157.25 97.98 160.44 105.3 C162.21 109.37 163.99 113.45 165.76 117.52 C166.11 118.32 166.47 119.13 166.83 119.96 C168.92 124.76 171.02 129.57 173.11 134.37 C181.51 153.64 189.9 172.9 198.28 192.18 C206.15 210.28 214.03 228.38 221.92 246.48 C225.81 255.38 229.69 264.28 233.57 273.19 C234.63 275.63 235.7 278.07 236.76 280.52 C237.11 281.32 237.47 282.13 237.83 282.96 C239.92 287.76 242.02 292.57 244.11 297.37 C252.51 316.64 260.9 335.9 269.28 355.18 C277.14 373.26 285.01 391.34 292.89 409.41 C294.71 413.58 296.53 417.76 298.35 421.93 C299.11 423.66 299.86 425.38 300.61 427.11 C302.44 431.29 304.26 435.48 306.08 439.67 C309.13 446.67 312.19 453.68 315.29 460.66 C315.77 461.74 316.24 462.82 316.74 463.93 C317.59 465.85 318.45 467.78 319.31 469.7 C319.67 470.52 320.04 471.34 320.41 472.19 C320.72 472.88 321.03 473.58 321.35 474.29 C322 476.24 322 476.24 322 480.24 C305.01 480.36 288.01 480.45 271.02 480.5 C263.13 480.53 255.24 480.56 247.35 480.62 C240.47 480.67 233.59 480.7 226.72 480.71 C223.07 480.72 219.43 480.73 215.79 480.77 C211.72 480.81 207.66 480.81 203.59 480.81 C202.39 480.83 201.18 480.84 199.94 480.86 C191.77 480.81 191.77 480.81 187.8 477.86 C186.06 475.32 184.7 473 183.51 470.16 C183.07 469.11 182.62 468.07 182.16 466.99 C181.68 465.81 181.19 464.64 180.69 463.43 C180.14 462.13 179.59 460.84 179.04 459.54 C177.77 456.53 176.49 453.52 175.23 450.51 C172.73 444.59 170.19 438.68 167.66 432.77 C167.18 431.66 166.7 430.55 166.21 429.4 C165.22 427.08 164.22 424.76 163.22 422.44 C160.61 416.35 158 410.25 155.39 404.15 C154.32 401.66 153.25 399.16 152.18 396.66 C151.91 396.04 151.65 395.42 151.38 394.79 C148.57 388.24 145.77 381.69 142.96 375.14 C142.47 373.99 141.97 372.84 141.47 371.65 C139.98 368.18 138.49 364.71 137 361.24 C131.14 347.56 125.27 333.88 119.42 320.2 C106.31 289.58 106.31 289.58 93.13 258.99 C92.36 257.22 92.36 257.22 91.58 255.41 C90.89 253.83 90.89 253.83 90.2 252.22 C89.62 250.91 89.62 250.91 89.04 249.56 C88.7 248.79 88.35 248.03 88 247.24 C87.68 246.5 87.35 245.76 87.02 245 C86.07 242.99 86.07 242.99 83.49 242.03 C79.02 241.02 74.69 240.78 70.13 240.62 C69.25 240.58 68.37 240.54 67.46 240.5 C65.31 240.4 63.16 240.32 61 240.24 C60.87 240.98 60.74 241.71 60.61 242.47 C60.04 245.04 59.3 247.19 58.25 249.6 C57.89 250.44 57.52 251.29 57.15 252.15 C56.75 253.07 56.35 253.98 55.93 254.92 C55.3 256.37 55.3 256.37 54.66 257.86 C53.74 259.98 52.82 262.09 51.9 264.21 C49.9 268.79 47.91 273.37 45.93 277.96 C44.88 280.37 43.83 282.79 42.78 285.21 C37.66 297 32.61 308.81 27.55 320.63 C18.66 341.43 9.7 362.2 0.68 382.94 C-5.43 397 -11.52 411.06 -17.55 425.15 C-18.66 427.75 -19.78 430.35 -20.9 432.95 C-23.87 439.9 -26.84 446.85 -29.76 453.83 C-30.87 456.48 -31.99 459.14 -33.11 461.79 C-33.85 463.55 -34.57 465.31 -35.3 467.07 C-35.73 468.11 -36.17 469.14 -36.62 470.2 C-36.98 471.09 -37.35 471.97 -37.73 472.88 C-39.51 476.18 -41.63 478.56 -45 480.24 C-46.76 480.33 -48.52 480.36 -50.29 480.36 C-51.41 480.36 -52.53 480.36 -53.69 480.36 C-54.92 480.36 -56.16 480.36 -57.43 480.35 C-58.73 480.35 -60.03 480.35 -61.37 480.35 C-64.93 480.35 -68.49 480.35 -72.06 480.34 C-75.78 480.34 -79.5 480.34 -83.22 480.33 C-90.28 480.33 -97.33 480.32 -104.38 480.31 C-112.41 480.3 -120.43 480.3 -128.46 480.29 C-144.97 480.28 -161.49 480.26 -178 480.24 C-177.29 475.55 -176.1 471.79 -174.15 467.45 C-173.86 466.8 -173.57 466.15 -173.27 465.48 C-172.64 464.07 -172.01 462.66 -171.37 461.26 C-169.65 457.45 -167.95 453.63 -166.25 449.81 C-165.72 448.62 -165.72 448.62 -165.18 447.41 C-161.49 439.14 -157.93 430.82 -154.37 422.49 C-153.12 419.55 -151.86 416.6 -150.6 413.66 C-150.29 412.94 -149.99 412.23 -149.67 411.49 C-146.72 404.58 -143.74 397.69 -140.75 390.8 C-139.69 388.36 -138.63 385.91 -137.57 383.47 C-137.29 382.83 -137.01 382.2 -136.73 381.54 C-132.7 372.26 -128.7 362.97 -124.69 353.68 C-118.79 340.03 -112.9 326.38 -107 312.74 C-98.8 293.78 -90.61 274.82 -82.42 255.85 C-80.42 251.22 -78.42 246.59 -76.42 241.96 C-75.63 240.13 -74.84 238.3 -74.05 236.46 C-72.09 231.92 -70.12 227.37 -68.16 222.83 C-64.43 214.22 -60.72 205.61 -57.08 196.96 C-55.35 192.87 -53.61 188.78 -51.88 184.7 C-51.05 182.74 -50.23 180.79 -49.41 178.83 C-48.28 176.12 -47.13 173.41 -45.98 170.71 C-45.65 169.91 -45.32 169.11 -44.98 168.28 C-44.66 167.54 -44.34 166.8 -44.01 166.04 C-43.74 165.4 -43.47 164.76 -43.19 164.1 C-41.45 161.39 -39.72 159.96 -37 158.24 C-34.34 157.87 -32.1 157.72 -29.44 157.77 C-28.7 157.77 -27.95 157.77 -27.19 157.77 C-25.58 157.76 -23.97 157.77 -22.36 157.79 C-19.82 157.81 -17.27 157.8 -14.72 157.79 C-8.4 157.77 -2.07 157.79 4.26 157.81 C9.6 157.84 14.95 157.84 20.3 157.81 C22.81 157.81 25.32 157.83 27.82 157.86 C29.36 157.85 30.9 157.84 32.44 157.84 C33.14 157.85 33.83 157.87 34.55 157.88 C38.38 157.83 39.92 157.31 42.94 154.87 C45.16 152.43 45.16 152.43 45.58 149.57 C44.73 144.68 42.8 140.47 40.78 135.96 C40.33 134.94 39.88 133.92 39.42 132.86 C38.45 130.65 37.47 128.43 36.49 126.22 C34.11 120.88 31.77 115.52 29.42 110.17 C28.6 108.3 27.78 106.43 26.96 104.57 C21.12 91.27 15.43 77.92 9.75 64.55 C8.83 62.38 7.9 60.21 6.98 58.04 C5.65 54.91 4.32 51.78 3 48.65 C0.66 43.12 -1.71 37.6 -4.11 32.09 C-4.62 30.91 -5.14 29.73 -5.66 28.52 C-6.64 26.25 -7.63 23.98 -8.63 21.72 C-9.08 20.7 -9.52 19.68 -9.97 18.62 C-10.36 17.73 -10.76 16.83 -11.16 15.91 C-12.47 11.74 -12.56 8.48 -10.75 4.49 C-7.73 0.61 -4.79 -0.01 0 0 Z " fill="#FF6600" transform="translate(177.99871826171875,-0.240509033203125)"/>
</svg>
